<svg width="28" height="30" viewBox="0 0 28 30" fill="none" xmlns="http://www.w3.org/2000/svg">
<g clip-path="url(#clip0)">
<path d="M18.9625 15L26.7805 9.13652C27.7398 8.41699 27.7398 7.25039 26.7805 6.53027L25.043 5.22715C24.0836 4.50762 22.5281 4.50762 21.568 5.22715L13.75 11.0906L5.93203 5.22715C4.97266 4.50762 3.41719 4.50762 2.45703 5.22715L0.719531 6.53027C-0.239844 7.2498 -0.239844 8.41641 0.719531 9.13652L8.5375 15L0.719531 20.8635C-0.239844 21.583 -0.239844 22.7496 0.719531 23.4697L2.45703 24.7729C3.41641 25.4924 4.97266 25.4924 5.93203 24.7729L13.75 18.9094L21.568 24.7729C22.5273 25.4924 24.0836 25.4924 25.043 24.7729L26.7805 23.4697C27.7398 22.7502 27.7398 21.5836 26.7805 20.8635L18.9625 15Z" fill="#FEA621"/>
</g>
<defs>
<clipPath id="clip0">
<rect width="27.5" height="30" fill="white"/>
</clipPath>
</defs>
</svg>
