<svg width="37" height="40" viewBox="0 0 37 40" fill="none" xmlns="http://www.w3.org/2000/svg">
<g clip-path="url(#clip0)">
<path d="M1.30952 10.3125H35.3571C36.0804 10.3125 36.6667 9.75289 36.6667 9.0625V5.9375C36.6667 5.24711 36.0804 4.6875 35.3571 4.6875H1.30952C0.586257 4.6875 0 5.24711 0 5.9375V9.0625C0 9.75289 0.586257 10.3125 1.30952 10.3125ZM1.30952 22.8125H35.3571C36.0804 22.8125 36.6667 22.2529 36.6667 21.5625V18.4375C36.6667 17.7471 36.0804 17.1875 35.3571 17.1875H1.30952C0.586257 17.1875 0 17.7471 0 18.4375V21.5625C0 22.2529 0.586257 22.8125 1.30952 22.8125ZM1.30952 35.3125H35.3571C36.0804 35.3125 36.6667 34.7529 36.6667 34.0625V30.9375C36.6667 30.2471 36.0804 29.6875 35.3571 29.6875H1.30952C0.586257 29.6875 0 30.2471 0 30.9375V34.0625C0 34.7529 0.586257 35.3125 1.30952 35.3125Z" fill="#FEA621"/>
</g>
<defs>
<clipPath id="clip0">
<rect width="36.6667" height="40" fill="white"/>
</clipPath>
</defs>
</svg>
